#!OML:ASF E:\acrobat2\Project_11_07_03\Capture day 1\Session 1\Acrobat.ASF
:FULLY-SPECIFIED
:DEGREES
388
root 10.8049 21.6907 16.0773 0.578518 0.759399 7.0965
lowerback -9.6189 -0.517935 -5.1297
upperback -6.44511 -0.305217 -2.25429
thorax -1.30855 -0.0412308 0.517736
lowerneck -0.282482 -2.65377 -3.8178
upperneck 10.7356 -3.81432 3.80011
head 3.7137 -1.90642 1.8029
rclavicle -5.09386e-016 -1.75427e-014
rhumerus 48.7891 10.6747 -64.4811
rradius 24.4034
rwrist 7.66543
rhand -13.1628 -39.6371
rfingers 7.12502
rthumb 12.9362 -69.2161
lclavicle -5.09386e-016 -1.75427e-014
lhumerus 59.754 -21.0005 49.2227
lradius 20.9128
lwrist 2.42274
lhand -4.01859 -15.7152
lfingers 7.12502
lthumb 21.7361 13.0844
rfemur 10.8072 6.57763 8.39108
rtibia -3.68371
rfoot -17.7853 -14.3552
rtoes 13.1896
lfemur 4.92657 -1.00707 -23.5991
ltibia 3.58505
lfoot -11.3291 -2.56392
ltoes 9.52444
389
root 10.8083 21.694 16.0438 0.511933 0.82496 7.08383
lowerback -9.67531 -0.531159 -5.16214
upperback -6.41471 -0.314482 -2.19623
thorax -1.24521 -0.0453411 0.594999
lowerneck -0.144349 -2.7042 -3.86734
upperneck 11.0528 -3.88799 3.73444
head 3.80215 -1.94894 1.7893
rclavicle -1.44119e-015 4.04527e-014
rhumerus 45.2446 11.9721 -66.1997
rradius 24.5069
rwrist 7.37103
rhand -13.2983 -39.922
rfingers 7.12502
rthumb 12.8057 -69.5092
lclavicle -1.44119e-015 4.04527e-014
lhumerus 56.3957 -23.3005 51.4233
lradius 21.0092
lwrist 2.92033
lhand -3.78762 -16.1917
lfingers 7.12502
lthumb 21.9579 12.582
rfemur 10.742 6.42356 8.31665
rtibia -3.63243
rfoot -17.4702 -14.3093
rtoes 13.7786
lfemur 4.87107 -1.00058 -23.5777
ltibia 3.57459
lfoot -10.9625 -2.43371
ltoes 10.1521
390
root 10.8117 21.6974 16.0092 0.463466 0.9026 7.094
lowerback -9.71995 -0.563997 -5.22969
upperback -6.34817 -0.346133 -2.13384
thorax -1.14938 -0.0607301 0.694499
lowerneck -0.0588837 -2.74729 -3.89546
upperneck 11.3711 -3.94989 3.66202
head 3.90014 -1.98458 1.76939
rclavicle 8.62228e-015 1.36167e-014
rhumerus 41.6018 13.2394 -67.8389
rradius 24.5638
rwrist 7.14136
rhand -13.4035 -40.2313
rfingers 7.12502
rthumb 12.7043 -69.8248
lclavicle 8.62228e-015 1.36167e-014
lhumerus 52.77 -25.4421 53.7835
lradius 21.0386
lwrist 3.28119
lhand -3.60432 -16.7655
lfingers 7.12502
lthumb 22.1339 11.9875
rfemur 10.6493 6.27132 8.20624
rtibia -3.57195
rfoot -17.1477 -14.2642
rtoes 14.8245
lfemur 4.79689 -0.979491 -23.5783
ltibia 3.54331
lfoot -10.5084 -2.29134
ltoes 10.8532
391
root 10.8151 21.701 15.9731 0.431384 0.994759 7.10035
lowerback -9.75865 -0.62587 -5.30663
upperback -6.21864 -0.412865 -2.05597
thorax -0.988716 -0.0954875 0.812187
lowerneck -0.0595605 -2.77439 -3.88712
upperneck 11.647 -3.98472 3.5674
head 3.99702 -2.00528 1.7353
rclavicle -1.02623e-014 3.33958e-014
rhumerus 37.914 14.4788 -69.4082
rradius 24.5634
rwrist 6.98933
rhand -13.4083 -40.5232
rfingers 7.12502
rthumb 12.6996 -70.117
lclavicle -1.02623e-014 3.33958e-014
lhumerus 48.9223 -27.3581 56.2307
lradius 20.9903
lwrist 3.49796
lhand -3.49786 -17.3947
lfingers 7.12502
lthumb 22.2361 11.3461
rfemur 10.5278 6.09682 8.08817
rtibia -3.49697
rfoot -16.8136 -14.2116
rtoes 16.1879
lfemur 4.69749 -0.935929 -23.5673
ltibia 3.5053
lfoot -9.97579 -2.14096
ltoes 11.557
392
root 10.8185 21.7049 15.9351 0.412826 1.09655 7.06587
lowerback -9.74725 -0.714719 -5.35021
upperback -6.03958 -0.519355 -1.95401
thorax -0.800789 -0.152177 0.932696
lowerneck -0.119233 -2.78142 -3.84237
upperneck 11.844 -3.9871 3.45299
head 4.07415 -2.00852 1.68823
rclavicle 5.56597e-015 -2.11706e-014
rhumerus 34.1762 15.673 -70.9528
rradius 24.4817
rwrist 6.95845
rhand -13.3365 -40.8669
rfingers 7.12502
rthumb 12.7688 -70.4564
lclavicle 5.56597e-015 -2.11706e-014
lhumerus 44.8596 -29.0319 58.7291
lradius 20.8708
lwrist 3.59319
lhand -3.43749 -18.0399
lfingers 7.12502
lthumb 22.294 10.6941
rfemur 10.3699 5.86476 7.99826
rtibia -3.39415
rfoot -16.4423 -14.1291
rtoes 17.6679
lfemur 4.56967 -0.903514 -23.5065
ltibia 3.46591
lfoot -9.39299 -1.96214
ltoes 12.3142
393
root 10.8222 21.7089 15.8949 0.412545 1.19016 6.97159
lowerback -9.66973 -0.817202 -5.33157
upperback -5.81495 -0.651901 -1.83743
thorax -0.599349 -0.22447 1.03132
lowerneck -0.218675 -2.7754 -3.72886
upperneck 11.9378 -3.96739 3.31294
head 4.11816 -1.9984 1.62019
rclavicle 1.20265e-014 9.93923e-016
rhumerus 30.3722 16.7619 -72.5098
rradius 24.3134
rwrist 7.06178
rhand -13.1463 -41.1909
rfingers 7.12502
rthumb 12.9522 -70.7689
lclavicle 1.20265e-014 9.93923e-016
lhumerus 40.6722 -30.5392 61.1167
lradius 20.7219
lwrist 3.73364
lhand -3.34805 -18.6089
lfingers 7.12502
lthumb 22.3799 10.1147
rfemur 10.152 5.57599 7.9567
rtibia -3.24718
rfoot -16.0183 -14.0177
rtoes 19.0615
lfemur 4.39432 -0.890004 -23.3768
ltibia 3.45082
lfoot -8.79479 -1.73339
ltoes 13.0118
394
root 10.8263 21.7132 15.8525 0.431688 1.24302 6.81985
lowerback -9.49248 -0.926298 -5.24163
upperback -5.55559 -0.805065 -1.70629
thorax -0.414962 -0.308829 1.10388
lowerneck -0.360571 -2.74798 -3.58039
upperneck 11.9192 -3.917 3.18269
head 4.12811 -1.97069 1.54982
rclavicle 1.2424e-015 1.78906e-015
rhumerus 26.4907 17.7026 -74.1134
rradius 24.0626
rwrist 7.31151
rhand -12.7951 -41.4264
rfingers 7.12502
rthumb 13.2907 -70.9827
lclavicle 1.2424e-015 1.78906e-015
lhumerus 36.3694 -31.8683 63.3898
lradius 20.5428
lwrist 3.94085
lhand -3.16105 -18.982
lfingers 7.12502
lthumb 22.5594 9.71998
rfemur 9.84589 5.2373 7.95686
rtibia -3.02985
rfoot -15.5224 -13.8706
rtoes 20.2834
lfemur 4.16177 -0.881448 -23.1845
ltibia 3.48163
lfoot -8.21692 -1.42787
ltoes 13.4029
395
root 10.8316 21.7178 15.8076 0.471238 1.23608 6.64641
lowerback -9.18073 -1.02503 -5.10223
upperback -5.27867 -0.957357 -1.58131
thorax -0.286792 -0.392968 1.14406
lowerneck -0.522011 -2.70471 -3.41253
upperneck 11.7913 -3.84795 3.09805
head 4.10287 -1.93084 1.49194
rclavicle -1.59028e-015 -1.72943e-014
rhumerus 22.4787 18.3906 -75.7951
rradius 23.7405
rwrist 7.72149
rhand -12.3323 -41.6749
rfingers 7.12502
rthumb 13.7368 -71.2015
lclavicle -1.59028e-015 -1.72943e-014
lhumerus 31.8992 -32.9104 65.7155
lradius 20.2819
lwrist 4.03363
lhand -2.80845 -19.1002
lfingers 7.12502
lthumb 22.8978 9.56028
rfemur 9.43331 4.84049 7.94995
rtibia -2.72238
rfoot -14.9298 -13.6756
rtoes 21.2697
lfemur 3.85965 -0.850213 -22.9768
ltibia 3.59112
lfoot -7.67284 -1.06065
ltoes 13.3799
396
root 10.8374 21.7224 15.7586 0.552117 1.19837 6.51537
lowerback -8.72439 -1.1206 -4.98989
upperback -4.99394 -1.11251 -1.48089
thorax -0.230759 -0.476808 1.17632
lowerneck -0.688897 -2.64947 -3.2449
upperneck 11.559 -3.76805 3.08467
head 4.04341 -1.88277 1.45857
rclavicle -3.03147e-015 2.34566e-014
rhumerus 18.3347 18.7309 -77.5359
rradius 23.3537
rwrist 8.28487
rhand -11.7826 -41.8476
rfingers 7.12502
rthumb 14.2665 -71.3375
lclavicle -3.03147e-015 2.34566e-014
lhumerus 27.2343 -33.5123 68.2014
lradius 19.8992
lwrist 3.84537
lhand -2.29927 -18.9294
lfingers 7.12502
lthumb 23.3863 9.66968
rfemur 8.90146 4.41997 7.87702
rtibia -2.32961
rfoot -14.2895 -13.4825
rtoes 22.0551
lfemur 3.4321 -0.772381 -22.823
ltibia 3.83967
lfoot -7.14946 -0.698459
ltoes 13.0635
397
root 10.8436 21.727 15.7048 0.690724 1.1423 6.47341
lowerback -8.14178 -1.21219 -4.95631
upperback -4.69892 -1.26409 -1.4159
thorax -0.234531 -0.556684 1.2195
lowerneck -0.863108 -2.59095 -3.10279
upperneck 11.2372 -3.68856 3.14917
head 3.95696 -1.83305 1.45584
rclavicle -1.43622e-014 -3.61788e-014
rhumerus 14.0799 18.6629 -79.2636
rradius 22.9161
rwrist 8.9718
rhand -11.2716 -41.9727
rfingers 7.12502
rthumb 14.7588 -71.4273
lclavicle -1.43622e-014 -3.61788e-014
lhumerus 22.3735 -33.3671 70.9733
lradius 19.2929
lwrist 3.06716
lhand -1.71589 -18.6028
lfingers 7.12502
lthumb 23.9459 9.92395
rfemur 8.23434 3.97212 7.68647
rtibia -1.84283
rfoot -13.6325 -13.2859
rtoes 22.7957
lfemur 2.84283 -0.649194 -22.7777
ltibia 4.26062
lfoot -6.65421 -0.377874
ltoes 12.7189
398
root 10.8502 21.7316 15.6451 0.898943 1.07849 6.52236
lowerback -7.43751 -1.29463 -5.0064
upperback -4.40098 -1.40589 -1.38355
thorax -0.303486 -0.629317 1.28046
lowerneck -1.03239 -2.53527 -3.00263
upperneck 10.8369 -3.61547 3.278
head 3.84559 -1.78616 1.48179
rclavicle -4.42296e-015 4.8901e-014
rhumerus 9.75265 18.1555 -80.8892
rradius 22.4037
rwrist 9.72849
rhand -10.9878 -42.2667
rfingers 7.12502
rthumb 15.0323 -71.701
lclavicle -4.42296e-015 4.8901e-014
lhumerus 17.4152 -32.3723 73.8714
lradius 18.4929
lwrist 1.65747
lhand -1.07515 -18.12
lfingers 7.12502
lthumb 24.5602 10.3247
rfemur 7.41199 3.45912 7.37441
rtibia -1.23919
rfoot -12.9586 -13.0582
rtoes 23.4971
lfemur 2.05711 -0.453702 -22.8397
ltibia 4.89385
lfoot -6.17587 -0.149324
ltoes 12.5015
399
root 10.8572 21.7364 15.5797 1.18464 1.00516 6.63958
lowerback -6.6601 -1.36019 -5.11153
upperback -4.07866 -1.52684 -1.3787
thorax -0.389653 -0.691015 1.34846
lowerneck -1.19486 -2.48587 -2.9402
upperneck 10.3303 -3.54987 3.45024
head 3.69874 -1.74353 1.52827
rclavicle 2.08724e-015 1.43125e-014
rhumerus 5.41743 17.1179 -82.3235
rradius 21.8217
rwrist 10.6376
rhand -10.8513 -42.6193
rfingers 7.12502
rthumb 15.1637 -72.0437
lclavicle 2.08724e-015 1.43125e-014
lhumerus 12.5533 -30.562 76.6058
lradius 17.5458
lwrist -0.299887
lhand -0.435225 -17.5406
lfingers 7.12502
lthumb 25.1734 10.8194
rfemur 6.4166 2.85841 6.96779
rtibia -0.499926
rfoot -12.2745 -12.7757
rtoes 24.1054
lfemur 1.06333 -0.199223 -22.9842
ltibia 5.73524
lfoot -5.7179 -0.00757162
ltoes 12.4816
